<?xml version="1.0" encoding="UTF-8" standalone="no"?>
<!-- Created with Inkscape (http://www.inkscape.org/) -->

<svg
   width="210mm"
   height="297mm"
   viewBox="0 0 210 297"
   version="1.1"
   id="svg1"
   xmlns="http://www.w3.org/2000/svg"
   xmlns:svg="http://www.w3.org/2000/svg">
  <defs
     id="defs1" />
  <g
     id="layer1">
    <path
       style="fill:#1a1a1a;stroke-width:0.264583"
       id="path1"
       d="m 25.606936,95.672581 c 5.2061,0.32758 10.424252,0.318047 15.638073,0.309777 3.315846,-0.05156 6.674802,-0.13393 9.931246,-0.834393 1.601806,-0.344551 2.298137,-0.62102 3.859255,-1.135666 4.476454,-1.689629 8.533702,-4.248399 12.525428,-6.845276 2.101355,-1.492911 4.306922,-2.883604 6.133534,-4.71964 0,0 -3.339838,-2.040715 -3.339838,-2.040715 v 0 c -1.753124,1.838602 -3.872593,3.272887 -5.922939,4.753141 -3.957209,2.609485 -8.00917,5.139201 -12.49621,6.745317 -1.579083,0.502478 -2.217446,0.749289 -3.829537,1.092306 -3.205316,0.682027 -6.502349,0.82016 -9.767622,0.874453 -5.290093,0.02397 -10.617621,0.0624 -15.873581,-0.602007 z" />
    <path
       style="fill:#1a1a1a;stroke-width:0.264583"
       id="path2"
       d="m 70.411,82.167322 c 0.07607,3.161908 0.05933,6.325351 0.05038,9.487937 -0.02066,2.977578 0.16075,5.951754 0.252701,8.927191 0.08029,2.85299 0.09409,5.70721 0.09641,8.56114 7.94e-4,2.26016 -0.01947,4.52026 -0.01146,6.78041 0.0033,2.15778 -0.0036,4.31556 -0.0057,6.47334 -0.03503,1.69855 0.05503,3.40365 -0.05727,5.09963 -0.111821,0.96377 -0.241499,1.92301 -0.291143,2.89245 -0.04655,1.07809 -0.04027,2.15747 -0.04324,3.23629 -0.02871,0.80581 0.03351,1.61638 -0.02196,2.42125 4.326798,2.07812 3.344913,2.57769 3.914844,-0.20536 0.183055,-1.03682 0.422817,-2.06112 0.574574,-3.10353 0.147842,-1.05633 0.368523,-2.09856 0.581219,-3.14292 0.126499,-1.11585 0.252973,-2.21474 0.515635,-3.30744 0.181544,-0.94747 0.587981,-1.82761 0.955543,-2.71417 0.419682,-1.00006 0.863587,-1.98673 1.331868,-2.96478 0.454728,-1.05208 1.098904,-2.00834 1.80908,-2.90362 0.934887,-1.07029 1.841751,-2.15962 2.710818,-3.28489 1.269021,-1.59749 2.646333,-3.11469 4.117446,-4.52824 1.793795,-1.94589 3.925138,-3.46929 6.126731,-4.90944 1.810358,-1.15959 3.656253,-2.24617 5.626965,-3.10698 1.715639,-0.71209 3.474629,-1.32109 5.257629,-1.84048 1.79134,-0.468013 3.60355,-0.865465 5.38129,-1.383601 1.90362,-0.690809 2.53073,0.228721 -2.4183,-2.314478 -0.0714,-0.0367 -0.10586,0.121288 -0.16561,0.17493 -0.0705,0.06327 -0.14932,0.116557 -0.22398,0.174836 -0.74405,0.413221 -1.48633,0.81615 -2.20085,1.280907 -0.86111,0.458141 -1.68308,0.955114 -2.4745,1.522592 -0.77996,0.606614 -1.49252,1.292664 -2.230952,1.950054 -0.715928,0.67709 -1.380083,1.39856 -1.956229,2.19801 -0.568984,0.87508 -1.18146,1.71887 -1.67518,2.64074 -0.511532,0.74116 -0.904124,1.53693 -1.302684,2.33945 -0.301771,0.61663 -0.516393,1.26908 -0.754277,1.91136 -0.185222,0.68232 -0.507966,1.30851 -0.77574,1.95848 -0.334552,0.76568 -0.637471,1.54799 -0.89304,2.34379 -0.20874,0.81368 -0.412081,1.62597 -0.65219,2.43058 -0.239062,1.22889 -0.418862,2.47559 -0.568841,3.71989 -0.128558,1.07003 -0.162351,2.14759 -0.183674,3.22407 -0.0784,0.91716 0.240649,1.76819 0.552151,2.61219 0.336198,0.89691 0.762029,1.75222 1.196502,2.60434 0.395115,0.75789 0.798332,1.51347 1.219594,2.25722 0.483216,0.77186 0.944814,1.55717 1.475504,2.29775 0.513544,0.66582 1.033656,1.32646 1.558235,1.98362 0.44309,0.50487 0.924727,0.97444 1.411454,1.43681 1.389478,1.48258 2.934597,2.00805 4.892507,3.09484 1.51387,0.52053 3.1017,0.73467 4.6906,0.8518 0.94604,0.0288 1.88575,-0.0418 2.82572,-0.1351 0,0 -3.16257,-2.25422 -3.16257,-2.25422 v 0 c -0.92906,0.0766 -1.85823,0.13511 -2.79106,0.0765 -1.58229,-0.14885 -3.17137,-0.38213 -4.65577,-0.97823 5.40448,3.23221 2.93165,1.95278 1.86012,0.86858 -0.44345,-0.5028 -0.97889,-0.91989 -1.43706,-1.41109 -0.534416,-0.64993 -1.04176,-1.31856 -1.572207,-1.97081 -0.550654,-0.72022 -1.00852,-1.49817 -1.488721,-2.26579 -0.468,-0.70585 -0.799049,-1.50635 -1.23326,-2.23397 -0.446331,-0.83384 -0.861718,-1.68149 -1.214945,-2.55799 -0.298498,-0.80161 -0.671319,-1.60691 -0.616694,-2.48166 0.0094,-1.06755 0.03359,-2.13608 0.145447,-3.1987 0.138174,-1.22137 0.31764,-2.4419 0.562147,-3.64574 0.240419,-0.80262 0.447662,-1.61191 0.65064,-2.42518 0.241691,-0.78768 0.54238,-1.55995 0.878075,-2.31186 0.272968,-0.65235 0.603488,-1.27959 0.78413,-1.96827 0.241932,-0.62767 0.445762,-1.27051 0.736221,-1.87901 0.387536,-0.80293 0.768954,-1.5979 1.274718,-2.33835 0.487164,-0.90517 1.098569,-1.72923 1.652859,-2.59254 0.56362,-0.77329 1.22119,-1.46505 1.91324,-2.12486 0.72764,-0.64991 1.43408,-1.32778 2.21707,-1.91041 0.77997,-0.56453 1.61383,-1.03118 2.44658,-1.51292 0.73914,-0.457206 1.52465,-0.827755 2.2531,-1.301473 0.25758,-0.215011 0.47176,-0.387135 0.44656,-0.407553 -2.92105,-2.366968 -2.23814,-2.668109 -4.22622,-1.943479 -1.76752,0.516761 -3.55846,0.947087 -5.33982,1.41205 -1.801249,0.527584 -3.583954,1.121886 -5.307238,1.869964 -1.966809,0.891731 -3.800779,2.018381 -5.612257,3.191181 -2.219084,1.45989 -4.353165,3.01875 -6.195972,4.94851 -1.494793,1.41823 -2.853336,2.97632 -4.162036,4.56652 -0.886077,1.11493 -1.814997,2.18833 -2.750934,3.26075 -0.717487,0.92515 -1.376548,1.90664 -1.848575,2.98135 -0.46491,0.98579 -0.928071,1.97099 -1.35532,2.97394 -0.37719,0.90445 -0.784588,1.80886 -0.971661,2.77518 -0.270005,1.09732 -0.424111,2.19373 -0.52986,3.31876 -0.20401,1.05337 -0.432919,2.10051 -0.596442,3.16156 -0.133197,1.03717 -0.363768,2.05349 -0.56279,3.07892 -0.111816,0.5279 -0.197353,1.05917 -0.307518,1.5866 -0.0186,0.089 -0.138366,0.2149 -0.0628,0.26549 1.114586,0.74625 2.319454,1.34792 3.479181,2.02189 -0.05593,-0.81238 0.0011,-1.63023 -0.02522,-2.44358 5.29e-4,-1.07138 0.0038,-2.14316 0.04359,-3.21392 0.05085,-0.96994 0.163888,-1.93285 0.268483,-2.89818 0.110477,-1.71094 -0.01074,-3.42878 0.03016,-5.14211 -0.0019,-2.1592 -0.008,-4.3184 -0.0029,-6.47759 0.0098,-2.26529 -0.0068,-4.53055 -0.01582,-6.79581 -0.01535,-2.85892 -0.02617,-5.7182 -0.10295,-8.57629 -0.09059,-2.97531 -0.275471,-5.948534 -0.275465,-8.925644 -0.0089,-3.145464 -0.02627,-6.291826 0.05038,-9.436597 z" />
    <path
       style="fill:#1a1a1a;stroke-width:0.264583"
       id="path3"
       d="m 12.816288,65.090439 c 0.04826,3.237931 0.14544,6.473883 0.253807,9.710417 0.296051,5.17466 0.434708,10.355119 0.520691,15.536897 0.03161,5.458883 0.125833,10.916067 0.245089,16.373627 0.171595,5.4483 0.474621,10.89109 0.669952,16.33833 0.225653,4.9657 0.420041,9.93225 0.513361,14.90229 0.04744,2.97499 0.03602,5.9504 0.03589,8.92564 -0.01583,2.69659 0.01018,5.39302 0.01778,8.08954 -3.8e-5,1.39985 -0.01103,2.79967 -0.02339,4.19944 -0.0011,0.11959 -0.03169,1.78122 0.01632,1.86917 0.192889,0.35333 0.585556,0.55255 0.878333,0.82882 1.803731,0.79484 3.535603,1.77841 5.411193,2.38453 0.638999,0.2065 6.677921,0.66465 6.943594,0.68505 4.424352,0.33971 8.853998,0.56501 13.284808,0.79957 10.210488,0.48444 20.435499,0.58922 30.655879,0.66778 11.004039,0.062 22.008169,0.0121 33.012295,0.0238 9.32951,-0.0123 18.65527,-0.4773 27.96707,-1.02472 4.09232,-0.27137 8.18693,-0.50711 12.28716,-0.61088 3.02725,0.0376 6.03971,-0.2466 9.05603,-0.45468 0.37742,-0.0346 2.4199,-0.218 2.87009,-0.27252 0.36307,-0.044 0.74556,-0.0257 1.08526,-0.16125 0.32838,-0.13099 0.63262,-0.34819 0.86339,-0.61604 0.72968,-0.84694 0.77545,-1.77557 1.02023,-2.83166 0.0787,-0.81156 0.21126,-1.61969 0.23614,-2.43468 0.12657,-4.14568 -0.48528,-8.31984 -0.89055,-12.43344 -0.68196,-6.92221 -0.35453,-3.53796 -1.02027,-10.55903 -0.72805,-9.75312 -1.79939,-19.47543 -2.58973,-29.2229 -0.35131,-5.78861 -0.81398,-11.568273 -1.37738,-17.339849 -0.30203,-3.198061 -0.6167,-6.394685 -0.93671,-9.590958 -0.3657,-2.849266 -0.69566,-5.703615 -0.94352,-8.565666 -0.16087,-2.351955 -0.39127,-4.697949 -0.53535,-7.05114 -0.0722,-1.285753 -0.10934,-2.581886 -0.30105,-3.857575 -0.0406,-0.270489 0.0676,-0.642218 -0.15105,-0.806558 -1.41219,-1.061405 -3.03081,-1.815939 -4.54622,-2.723909 -0.74214,-0.157192 -1.47798,-0.347843 -2.22644,-0.471578 -1.88498,-0.311629 -4.19787,-0.508738 -6.08555,-0.637855 -3.53896,-0.242064 -7.08346,-0.30803 -10.62877,-0.376713 -7.74565,-0.03628 -15.48283,0.394406 -23.22069,0.681008 -4.97788,0.24543 -9.963629,0.339119 -14.936571,0.684496 -0.281244,0.01953 -6.794415,0.5501 -7.14602,0.578699 -6.089838,0.356071 -12.139133,1.142285 -18.202298,1.783524 -5.752981,0.671402 -11.516135,1.226688 -17.289643,1.684888 -5.915988,0.462542 -11.849237,0.603073 -17.780634,0.677664 -3.732677,0.08922 -7.464339,0.215305 -11.197338,0.291103 -2.070747,0.21599 -4.151097,0.274637 -6.22727,0.41116 -0.352493,0.178114 -0.750811,0.285485 -1.05748,0.534341 -1.125361,0.913215 -1.4703334,2.426055 -1.8581329,3.732814 0,0 3.3517799,1.830972 3.3517799,1.830972 v 0 c 0.350293,-1.190493 0.654046,-2.637952 1.727633,-3.433993 0.282156,-0.209211 0.643859,-0.281014 0.965788,-0.421521 2.077107,-0.135853 4.159677,-0.159705 6.230075,-0.392305 3.676572,-0.147297 7.352538,-0.316318 11.031186,-0.404342 5.925092,-0.105481 11.85223,-0.254458 17.762079,-0.719235 5.779334,-0.44559 11.545975,-1.000573 17.302136,-1.688069 6.044999,-0.63719 12.075999,-1.4151 18.143754,-1.815203 7.337293,-0.616865 14.684246,-1.063791 22.045696,-1.270428 7.73687,-0.30893 15.47547,-0.725803 23.22119,-0.654622 3.55403,0.08082 7.10928,0.151601 10.65522,0.426321 1.8327,0.141986 4.31911,0.378777 6.14718,0.751607 0.76147,0.1553 1.50059,0.405019 2.25089,0.607528 -0.64714,-0.455173 -1.18984,-1.118288 -1.9414,-1.365517 -0.255,-0.08389 0.13152,0.521039 0.17799,0.785434 0.22218,1.263976 0.24169,2.559389 0.31542,3.836824 0.14098,2.367367 0.43772,4.721539 0.5875,7.088359 0.24661,2.86217 0.55016,5.720239 0.93414,8.567359 0.33021,3.215357 0.66673,6.42911 1.03517,9.640573 0.62966,5.801079 1.14298,11.613448 1.57647,17.432482 0.90647,9.76585 2.01741,19.51259 2.73169,29.29602 0.30504,3.32699 0.66266,7.19284 0.9559,10.52659 0.35615,4.04904 0.89092,8.16184 0.66091,12.23579 -0.0445,0.78863 -0.19314,1.56793 -0.28971,2.3519 -0.22078,0.87241 -0.30825,1.83838 -0.9546,2.54182 -0.8278,0.90093 -3.48844,0.72547 -4.63706,0.92952 -3.02231,0.21369 -6.04311,0.43904 -9.0754,0.42265 -4.03781,0.15019 -8.0664,0.45742 -12.09481,0.76514 -9.22571,0.68062 -18.47315,1.15641 -27.72589,1.17077 -11.020447,0.0173 -22.040893,-0.009 -33.061223,-0.0626 -10.235795,-0.0773 -20.475513,-0.16952 -30.699265,-0.71905 -4.452424,-0.24596 -8.905716,-0.47206 -13.34858,-0.86231 -1.302491,-0.1144 -2.605662,-0.2267 -3.9037,-0.38377 -1.061103,-0.1284 -2.181126,-0.87425 -3.171544,-0.47238 -0.533099,0.21631 0.758827,0.86494 1.13824,1.29741 -0.328503,-0.1647 -0.757035,-0.20628 -0.985508,-0.4941 -0.171044,-0.21547 -0.0498,-0.54822 -0.06012,-0.82313 -0.06587,-1.75559 0.0085,-3.51647 -0.03129,-5.27248 0.0098,-2.68939 0.04098,-5.37869 0.02542,-8.06818 -0.0066,-2.99345 -0.04341,-5.98682 -0.123104,-8.97928 -0.135881,-4.98986 -0.362953,-9.97565 -0.619133,-14.96071 -0.185,-5.43832 -0.394876,-10.87541 -0.626736,-16.31197 -0.141952,-5.4572 -0.231044,-10.913635 -0.248874,-16.372777 -0.09197,-5.170342 -0.227863,-10.340269 -0.450758,-15.506745 -0.08414,-3.201744 -0.220864,-6.405012 -0.07625,-9.607383 z" />
    <circle
       id="path4"
       style="fill:#1a1a1a;stroke:#000000;stroke-width:0.264583"
       cx="71.790184"
       cy="84.180367"
       r="0.048540011" />
    <circle
       id="path5"
       style="fill:#1a1a1a;stroke:#000000;stroke-width:0.264583"
       cx="73.612267"
       cy="82.722694"
       r="0.048540011" />
    <path
       style="fill:#1a1a1a;stroke-width:0.264583"
       id="path6"
       d="m 71.862888,82.137283 c -0.327599,-0.09487 -0.164023,-0.184203 -0.429755,0.453258 -0.0057,0.01365 0.03088,0.0046 0.04437,-0.0013 0.122227,-0.05495 0.01416,-0.04498 0.09643,-0.04761 -0.0037,0.09982 -5.29e-4,0.04609 -0.0108,0.161118 0,0 3.569748,1.738874 3.569748,1.738874 v 0 c -0.04549,-0.03757 -0.02927,-0.01156 -0.02985,-0.08698 0.113056,-0.388279 0.09969,-0.548608 -0.273392,0.147712 -0.02825,0.05273 0.298263,-0.07805 0.175427,0.03778 z" />
    <path
       style="fill:#1a1a1a;stroke-width:0.264583"
       id="path7"
       d="m 72.033425,81.816614 c -0.168354,0.247568 -0.308541,0.511431 -0.458896,0.769763 -0.121607,0.23201 -0.226102,0.471939 -0.330009,0.712157 0,0 3.428709,1.92119 3.428709,1.92119 v 0 c 0.09188,-0.228571 0.174797,-0.460676 0.30979,-0.669046 0.142306,-0.257234 0.257696,-0.53112 0.463534,-0.747533 z" />
    <circle
       id="path8"
       style="fill:#1a1a1a;stroke:#000000;stroke-width:0.264583"
       cx="15.976274"
       cy="97.146057"
       r="0.034322973" />
    <path
       style="fill:#1a1a1a;stroke-width:0.264583"
       id="path9"
       d="m 12.152021,63.253495 c 0.03666,1.067612 0.04087,2.136105 0.0381,3.204242 0,0 3.449404,1.75756 3.449404,1.75756 v 0 c -0.0027,-1.055192 8.73e-4,-2.110774 0.0381,-3.165422 z" />
    <path
       style="fill:#1a1a1a;stroke-width:0.264583"
       d="m 15.396625,63.317484 c -0.148407,0.47864 0.121408,1.063144 0,1.548773 -0.01042,0.04166 -0.08069,0.04944 -0.0911,0.0911 -0.06313,0.252503 0.01567,0.333071 -0.0911,0.546627 -0.08654,0.173082 0.06224,0.451003 0,0.63773 -0.01358,0.04074 -0.06074,0.06074 -0.0911,0.0911 -0.03037,0.0911 -0.07227,0.179144 -0.0911,0.273312 -0.01787,0.08933 0.04074,0.191826 0,0.273312 -0.01921,0.03842 -0.07752,0.05036 -0.0911,0.0911 -0.08199,0.245983 0.08199,0.573958 0,0.819941 -0.11822,0.354658 -0.0911,0.712764 -0.0911,1.093251"
       id="path11" />
    <path
       style="fill:#1a1a1a;stroke-width:0.264583"
       d="m 16.125465,68.328219 c 0.193528,0 0.120278,-0.634148 0.182208,-0.819938 0.0859,-0.257718 0.02644,-0.470194 0.0911,-0.728835 0.161428,-0.645708 0.311404,-2.26936 0.182208,-2.915335 -0.03767,-0.188336 -0.121468,-0.364419 -0.182208,-0.546627 -0.875183,0.178607 -1.680946,-0.08289 -2.55092,0.0911"
       id="path12" />
    <path
       style="fill:#1a1a1a;stroke-width:0.264583"
       d="m 11.66135,66.323926 c 0.830712,0.589066 8.017177,3.306636 8.017177,4.737423"
       id="path13" />
  </g>
</svg>
